<?xml version="1.0" encoding="UTF-8"?>
<svg id="Ebene_1" data-name="Ebene 1" xmlns="http://www.w3.org/2000/svg" viewBox="0 0 493.27 398.65">
  <defs>
    <style>
      .cls-1 {
        fill: none;
      }

      .cls-2 {
        fill: #0d1118;
      }
    </style>
  </defs>
  <g>
    <path class="cls-2" d="M227.7,110.5c-12.28,24.34-18.5,53.53-18.5,86.74s6.15,61.76,18.27,86.09c4.85,9.74,10.5,18.64,16.93,26.69-5.05,17.77-13.93,32.55-26.64,44.33-21.08,19.53-49.44,29.3-85.09,29.3s-64.57-9.73-85.81-29.18c-21.24-19.44-31.86-47.15-31.86-83.13v-20.75h65.18v21.24c0,19.04,4.76,33.49,14.29,43.34,9.52,9.85,22.25,14.77,38.2,14.77s28.4-4.92,37.84-14.77c9.44-9.85,14.17-24.3,14.17-43.34V15h64.69v63.31c-8.37,9.42-15.61,20.18-21.67,32.19Z"/>
    <path class="cls-2" d="M264.37,84.17v186.93c0,12.54-1.19,24.25-3.57,35.12-4.53-5.04-8.69-10.52-12.46-16.44-2.67-4.17-5.15-8.55-7.44-13.15-11.14-22.33-16.7-48.79-16.7-79.39s5.63-57.65,16.89-79.98c2.55-5.05,5.31-9.84,8.28-14.36,4.51-6.85,9.51-13.09,15-18.73Z"/>
    <path class="cls-2" d="M241.09,117.26c-11.26,22.33-16.89,48.99-16.89,79.98s5.56,57.06,16.7,79.39c2.29,4.6,4.77,8.98,7.44,13.15.69-5.96,1.03-12.18,1.03-18.68V102.9c-2.97,4.52-5.73,9.31-8.28,14.36ZM249.37,78.31V15h-64.69v256.83c0,19.04-4.73,33.49-14.17,43.34-9.44,9.85-22.05,14.77-37.84,14.77s-28.68-4.92-38.2-14.77c-9.53-9.85-14.29-24.3-14.29-43.34v-21.24H15v20.75c0,35.98,10.62,63.69,31.86,83.13,21.24,19.45,49.84,29.18,85.81,29.18s64.01-9.77,85.09-29.3c12.71-11.78,21.59-26.56,26.64-44.33-6.43-8.05-12.08-16.95-16.93-26.69-12.12-24.33-18.27-53.29-18.27-86.09s6.22-62.4,18.5-86.74c6.06-12.01,13.3-22.77,21.67-32.19Z"/>
  </g>
  <g>
    <path class="cls-1" d="M348.26,245.05h69.67c-1.3,6.29-3.36,12.01-6.17,17.1-5.08,9.18-12.01,16.05-21.18,21.02-9.37,5.09-20.73,7.66-33.77,7.66-14.42,0-26.75-3.36-37.68-10.27-10.93-6.91-19.37-16.9-25.8-30.54-6.63-14.05-9.99-31.88-9.99-52.98s3.36-38.96,10-53.09c6.44-13.71,14.8-23.7,25.53-30.54,10.74-6.83,22.57-10.15,36.19-10.15,7.92,0,15.23,1.04,21.73,3.1,6.31,2,12.01,4.92,16.92,8.66,4.96,3.79,9.31,8.46,12.93,13.88,3.72,5.59,6.71,12,8.89,19.05l3.26,10.58h74.48l-2.91-17.47c-2.64-15.81-7.97-30.59-15.85-43.94-7.87-13.31-18.01-24.94-30.15-34.58-12.04-9.56-25.84-17.02-41.02-22.18-15.11-5.13-31.49-7.73-48.67-7.73-27.82,0-53.06,6.82-75.03,20.28-5.36,3.28-10.45,6.92-15.27,10.9V0h-94.69v271.83c0,14.95-3.37,26.04-9.99,32.96-6.55,6.83-15.39,10.15-27.02,10.15s-20.79-3.34-27.42-10.2c-6.68-6.91-10.07-17.98-10.07-32.91v-36.24H0v35.75c0,40.19,12.36,71.88,36.73,94.2,23.99,21.97,56.27,33.11,95.94,33.11s71.44-11.2,95.28-33.3c12.61-11.68,21.97-25.9,28.04-42.52,7.14,6.95,15.01,13.05,23.58,18.27,22.15,13.51,48.07,20.36,77.05,20.36,25.95,0,49.43-5.53,69.78-16.43,20.61-11.04,37.08-26.91,48.93-47.15,11.79-20.15,17.77-44.09,17.77-71.15v-48.4h-144.84v66.72ZM217.76,354.35c-21.08,19.53-49.44,29.3-85.09,29.3s-64.57-9.73-85.81-29.18c-21.24-19.44-31.86-47.15-31.86-83.13v-20.75h65.18v21.24c0,19.04,4.76,33.49,14.29,43.34,9.52,9.85,22.25,14.77,38.2,14.77s28.4-4.92,37.84-14.77c9.44-9.85,14.17-24.3,14.17-43.34V15h64.69v63.31c-8.37,9.42-15.61,20.18-21.67,32.19-12.28,24.34-18.5,53.53-18.5,86.74s6.15,61.76,18.27,86.09c4.85,9.74,10.5,18.64,16.93,26.69-5.05,17.77-13.93,32.55-26.64,44.33ZM363.26,193.33h114.84v33.4c0,24.48-5.24,45.67-15.72,63.58-10.48,17.9-24.84,31.73-43.07,41.5-18.23,9.77-39.13,14.65-62.69,14.65-26.3,0-49.39-6.06-69.24-18.17-9.96-6.07-18.82-13.42-26.58-22.07-4.53-5.04-8.69-10.52-12.46-16.44-2.67-4.17-5.15-8.55-7.44-13.15-11.14-22.33-16.7-48.79-16.7-79.39s5.63-57.65,16.89-79.98c2.55-5.05,5.31-9.84,8.28-14.36,4.51-6.85,9.51-13.09,15-18.73,6.92-7.12,14.62-13.27,23.11-18.47,19.66-12.05,42.06-18.07,67.19-18.07,15.62,0,30.24,2.31,43.84,6.93,13.61,4.63,25.79,11.2,36.53,19.73,10.74,8.53,19.59,18.69,26.56,30.47,6.96,11.79,11.62,24.71,13.96,38.77h-45.7c-2.61-8.46-6.18-16.11-10.74-22.95-4.56-6.84-9.99-12.66-16.31-17.48s-13.48-8.5-21.48-11.04c-8.01-2.54-16.77-3.8-26.27-3.8-16.41,0-31.16,4.16-44.24,12.5-13.09,8.33-23.44,20.6-31.06,36.81-7.61,16.21-11.42,36.04-11.42,59.47s3.81,43.24,11.42,59.38c7.62,16.15,18.07,28.42,31.35,36.82,13.28,8.39,28.52,12.59,45.7,12.59,15.63,0,29.27-3.15,40.92-9.47,11.65-6.31,20.71-15.3,27.15-26.95,6.18-11.17,9.4-24.29,9.64-39.36h-71.26v-36.72Z"/>
    <path class="cls-2" d="M478.1,193.33v33.4c0,24.48-5.24,45.67-15.72,63.58-10.48,17.9-24.84,31.73-43.07,41.5-18.23,9.77-39.13,14.65-62.69,14.65-26.3,0-49.39-6.06-69.24-18.17-9.96-6.07-18.82-13.42-26.58-22.07-4.53-5.04-8.69-10.52-12.46-16.44-2.67-4.17-5.15-8.55-7.44-13.15-11.14-22.33-16.7-48.79-16.7-79.39s5.63-57.65,16.89-79.98c2.55-5.05,5.31-9.84,8.28-14.36,4.51-6.85,9.51-13.09,15-18.73,6.92-7.12,14.62-13.27,23.11-18.47,19.66-12.05,42.06-18.07,67.19-18.07,15.62,0,30.24,2.31,43.84,6.93,13.61,4.63,25.79,11.2,36.53,19.73,10.74,8.53,19.59,18.69,26.56,30.47,6.96,11.79,11.62,24.71,13.96,38.77h-45.7c-2.61-8.46-6.18-16.11-10.74-22.95-4.56-6.84-9.99-12.66-16.31-17.48s-13.48-8.5-21.48-11.04c-8.01-2.54-16.77-3.8-26.27-3.8-16.41,0-31.16,4.16-44.24,12.5-13.09,8.33-23.44,20.6-31.06,36.81-7.61,16.21-11.42,36.04-11.42,59.47s3.81,43.24,11.42,59.38c7.62,16.15,18.07,28.42,31.35,36.82,13.28,8.39,28.52,12.59,45.7,12.59,15.63,0,29.27-3.15,40.92-9.47,11.65-6.31,20.71-15.3,27.15-26.95,6.18-11.17,9.4-24.29,9.64-39.36h-71.26v-36.72h114.84Z"/>
    <path class="cls-2" d="M363.26,193.33v36.72h71.26c-.24,15.07-3.46,28.19-9.64,39.36-6.44,11.65-15.5,20.64-27.15,26.95-11.65,6.32-25.29,9.47-40.92,9.47-17.18,0-32.42-4.2-45.7-12.59-13.28-8.4-23.73-20.67-31.35-36.82-7.61-16.14-11.42-35.94-11.42-59.38s3.81-43.26,11.42-59.47c7.62-16.21,17.97-28.48,31.06-36.81,13.08-8.34,27.83-12.5,44.24-12.5,9.5,0,18.26,1.26,26.27,3.8,8,2.54,15.16,6.22,21.48,11.04s11.75,10.64,16.31,17.48c4.56,6.84,8.13,14.49,10.74,22.95h45.7c-2.34-14.06-7-26.98-13.96-38.77-6.97-11.78-15.82-21.94-26.56-30.47-10.74-8.53-22.92-15.1-36.53-19.73-13.6-4.62-28.22-6.93-43.84-6.93-25.13,0-47.53,6.02-67.19,18.07-8.49,5.2-16.19,11.35-23.11,18.47-5.49,5.64-10.49,11.88-15,18.73-2.97,4.52-5.73,9.31-8.28,14.36-11.26,22.33-16.89,48.99-16.89,79.98s5.56,57.06,16.7,79.39c2.29,4.6,4.77,8.98,7.44,13.15,3.77,5.92,7.93,11.4,12.46,16.44,7.76,8.65,16.62,16,26.58,22.07,19.85,12.11,42.94,18.17,69.24,18.17,23.56,0,44.46-4.88,62.69-14.65,18.23-9.77,32.59-23.6,43.07-41.5,10.48-17.91,15.72-39.1,15.72-63.58v-33.4h-114.84Z"/>
  </g>
</svg>